<?xml version="1.0" encoding="UTF-8"?>
<svg xmlns="http://www.w3.org/2000/svg" viewBox="0 0 256 256" width="256" height="256" role="img" aria-label="omni-notify-mcp">
  <title>omni-notify-mcp</title>
  <defs>
    <!-- Deep slate → bright blue, matches the UI accent -->
    <linearGradient id="bg" x1="0" y1="0" x2="1" y2="1">
      <stop offset="0%"  stop-color="#1a3550"/>
      <stop offset="55%" stop-color="#1f5a96"/>
      <stop offset="100%" stop-color="#4ea3ff"/>
    </linearGradient>
    <linearGradient id="bell" x1="0" y1="0" x2="0" y2="1">
      <stop offset="0%"  stop-color="#ffffff"/>
      <stop offset="100%" stop-color="#dbe8ff"/>
    </linearGradient>
    <!-- Sweep wedge: bright leading edge fading to transparent -->
    <linearGradient id="sweep" x1="1" y1="0" x2="0" y2="1">
      <stop offset="0%"   stop-color="#a7ffb6" stop-opacity="0.95"/>
      <stop offset="55%"  stop-color="#34d399" stop-opacity="0.45"/>
      <stop offset="100%" stop-color="#34d399" stop-opacity="0"/>
    </linearGradient>
    <radialGradient id="glow" cx="0.5" cy="0.4" r="0.6">
      <stop offset="0%"  stop-color="#ffffff" stop-opacity="0.18"/>
      <stop offset="100%" stop-color="#ffffff" stop-opacity="0"/>
    </radialGradient>

    <!-- Clip the sweep wedge so it stays inside the outer radar ring -->
    <clipPath id="radarClip">
      <circle cx="128" cy="128" r="118"/>
    </clipPath>
  </defs>

  <!-- Background fills the entire canvas (was inset 8px before — wasted space) -->
  <rect x="0" y="0" width="256" height="256" rx="48" fill="url(#bg)"/>
  <rect x="0" y="0" width="256" height="256" rx="48" fill="url(#glow)"/>

  <!-- ── RADAR (full concentric range rings + sweep wedge) ───────────────── -->
  <g>
    <!-- Three full range rings — bigger, stronger -->
    <circle cx="128" cy="128" r="118" fill="none" stroke="#ffffff" stroke-opacity="0.32" stroke-width="3"/>
    <circle cx="128" cy="128" r="86"  fill="none" stroke="#ffffff" stroke-opacity="0.42" stroke-width="3"/>
    <circle cx="128" cy="128" r="54"  fill="none" stroke="#ffffff" stroke-opacity="0.55" stroke-width="3"/>

    <!-- Crosshair lines through center, edge-to-edge -->
    <line x1="10"  y1="128" x2="246" y2="128" stroke="#ffffff" stroke-opacity="0.22" stroke-width="1.8"/>
    <line x1="128" y1="10"  x2="128" y2="246" stroke="#ffffff" stroke-opacity="0.22" stroke-width="1.8"/>

    <!-- Sweep wedge: 60° pie slice from center, leading edge to upper-right -->
    <g clip-path="url(#radarClip)">
      <path d="M128 128 L128 10 A118 118 0 0 1 230 69 Z"
            fill="url(#sweep)"/>
    </g>

    <!-- Bright leading edge so the rotation reads -->
    <line x1="128" y1="128" x2="230" y2="69"
          stroke="#a7ffb6" stroke-width="3" stroke-opacity="0.95" stroke-linecap="round"/>

    <!-- Center "ping" dot -->
    <circle cx="128" cy="128" r="4" fill="#a7ffb6"/>
  </g>

  <!-- ── BELL (foreground icon, bigger — fills ~50% of the canvas) ──────── -->
  <g>
    <!-- Soft drop shadow -->
    <path d="M128 56
             C 96 56, 80 80, 80 116
             L 80 152
             C 80 162, 72 170, 66 178
             L 190 178
             C 184 170, 176 162, 176 152
             L 176 116
             C 176 80, 160 56, 128 56 Z"
          fill="#0a1426" opacity="0.40" transform="translate(0,4)"/>
    <!-- Bell body -->
    <path d="M128 56
             C 96 56, 80 80, 80 116
             L 80 152
             C 80 162, 72 170, 66 178
             L 190 178
             C 184 170, 176 162, 176 152
             L 176 116
             C 176 80, 160 56, 128 56 Z"
          fill="url(#bell)" stroke="#1a3550" stroke-width="2.5"/>
    <!-- Bell top stud -->
    <circle cx="128" cy="48" r="8" fill="url(#bell)" stroke="#1a3550" stroke-width="2.5"/>
    <!-- Bell clapper -->
    <path d="M118 188
             C 118 200, 138 200, 138 188 Z"
          fill="url(#bell)" stroke="#1a3550" stroke-width="2.5"/>
  </g>

  <!-- ── CHAT BUBBLE (lower-right, bigger — denotes bidirectional ask/reply) -->
  <g>
    <path d="M158 154
             h 50
             a 16 16 0 0 1 16 16
             v 32
             a 16 16 0 0 1 -16 16
             h -26
             l -16 16
             v -16
             h -8
             a 16 16 0 0 1 -16 -16
             v -32
             a 16 16 0 0 1 16 -16 Z"
          fill="#0a1426" stroke="#ffffff" stroke-width="3.5" stroke-linejoin="round"/>
    <!-- Three bubble dots = "typing / message" -->
    <circle cx="170" cy="186" r="3.8" fill="#ffffff"/>
    <circle cx="186" cy="186" r="3.8" fill="#ffffff"/>
    <circle cx="202" cy="186" r="3.8" fill="#ffffff"/>
  </g>
</svg>
